<svg xmlns="http://www.w3.org/2000/svg" viewBox="0 0 144.1 50.25" height="40" width="104"><defs><style>.cls-1{fill:#fff;}</style></defs><g id="Ebene_2" data-name="Ebene 2"><g id="Ebene_1-2" data-name="Ebene 1"><path class="cls-1" d="M53.63,18.26h2.49a1,1,0,0,1,.64.2.94.94,0,0,1,.34.46l3.45,11.6c.1.43.19.84.27,1.24s.16.8.22,1.2c.09-.4.2-.8.32-1.2s.24-.81.37-1.24l3.81-11.67a.94.94,0,0,1,.31-.45.91.91,0,0,1,.56-.17h1.37a1,1,0,0,1,.59.17,1,1,0,0,1,.32.45l3.72,11.67c.13.42.24.83.34,1.23l.3,1.19c.06-.39.13-.8.23-1.22s.19-.83.3-1.2l3.52-11.6a.94.94,0,0,1,.34-.47.93.93,0,0,1,.59-.19h2.38l-5.83,18H72.07c-.31,0-.52-.2-.64-.61l-4-12.22a7.84,7.84,0,0,1-.23-.83L67,21.8l-.18.84a6.56,6.56,0,0,1-.23.84l-4,12.2a.74.74,0,0,1-.73.61H59.47Z"/><path class="cls-1" d="M90,18a8.07,8.07,0,0,1,3,.54,6.51,6.51,0,0,1,2.37,1.57,7.27,7.27,0,0,1,1.56,2.52A9.91,9.91,0,0,1,97.5,26a2,2,0,0,1-.16,1,.69.69,0,0,1-.61.24h-12a10.08,10.08,0,0,0,.46,3,6.23,6.23,0,0,0,1.18,2.11,4.67,4.67,0,0,0,1.78,1.26,6,6,0,0,0,2.31.42,6.55,6.55,0,0,0,2-.28,8.86,8.86,0,0,0,1.49-.6,11,11,0,0,0,1-.59,1.35,1.35,0,0,1,.72-.28.7.7,0,0,1,.61.31l.89,1.15A5.82,5.82,0,0,1,95.86,35a8.37,8.37,0,0,1-1.75.86,10.55,10.55,0,0,1-1.93.51,12.22,12.22,0,0,1-2,.17,9.19,9.19,0,0,1-3.44-.63A7.52,7.52,0,0,1,84,34.06a8.39,8.39,0,0,1-1.79-3,12.23,12.23,0,0,1-.64-4.13,10.36,10.36,0,0,1,.58-3.52,8.28,8.28,0,0,1,1.66-2.84,7.72,7.72,0,0,1,2.65-1.89A8.8,8.8,0,0,1,90,18Zm.08,2.33a4.88,4.88,0,0,0-3.62,1.32,6.22,6.22,0,0,0-1.63,3.68h9.8a6.44,6.44,0,0,0-.3-2,4.45,4.45,0,0,0-.89-1.58,4,4,0,0,0-1.43-1A4.92,4.92,0,0,0,90.1,20.31Z"/><path class="cls-1" d="M100.86,21a2.36,2.36,0,0,1,.17-.87,2.29,2.29,0,0,1,.46-.71,2.22,2.22,0,0,1,.71-.48,2.19,2.19,0,0,1,1.74,0,2.34,2.34,0,0,1,.71.48,2.15,2.15,0,0,1,.47.71,2.18,2.18,0,0,1,.17.87,2.14,2.14,0,0,1-.17.89,2.21,2.21,0,0,1-.47.7,2.15,2.15,0,0,1-.71.47,2.31,2.31,0,0,1-1.74,0,2,2,0,0,1-.71-.47,2.36,2.36,0,0,1-.46-.7A2.31,2.31,0,0,1,100.86,21Zm0,13.35a2.28,2.28,0,0,1,.63-1.58,2.22,2.22,0,0,1,.71-.48,2.19,2.19,0,0,1,1.74,0,2.34,2.34,0,0,1,.71.48,2.15,2.15,0,0,1,.47.71,2.34,2.34,0,0,1,0,1.75,2.25,2.25,0,0,1-.47.71,2.31,2.31,0,0,1-.71.47,2.31,2.31,0,0,1-1.74,0,2.2,2.2,0,0,1-.71-.47,2.41,2.41,0,0,1-.46-.71A2.26,2.26,0,0,1,100.86,34.33Z"/><path class="cls-1" d="M113.09,10.08V25.5h.82a1.61,1.61,0,0,0,.58-.09A1.69,1.69,0,0,0,115,25l5.69-6.11a3.15,3.15,0,0,1,.54-.46,1.24,1.24,0,0,1,.71-.18h2.88l-6.64,7.07a4.21,4.21,0,0,1-.49.53,2.74,2.74,0,0,1-.54.41,3.07,3.07,0,0,1,.58.49,4,4,0,0,1,.49.63l7,8.9h-2.85a1.41,1.41,0,0,1-.67-.15,1.73,1.73,0,0,1-.52-.47l-5.93-7.39a1.4,1.4,0,0,0-.53-.49,2.1,2.1,0,0,0-.8-.11h-.89v8.61H109.9V10.08Z"/><path class="cls-1" d="M128.19,36.29V10.08h3.19V20.86A9.16,9.16,0,0,1,134,18.77a6.79,6.79,0,0,1,3.32-.79,6.66,6.66,0,0,1,2.83.58,5.77,5.77,0,0,1,2.15,1.76,8.29,8.29,0,0,1,1.37,2.88,14.81,14.81,0,0,1,.48,4,12.28,12.28,0,0,1-.53,3.71,8.9,8.9,0,0,1-1.54,3,7.08,7.08,0,0,1-5.72,2.7,6,6,0,0,1-3-.68A6.78,6.78,0,0,1,131.22,34l-.16,1.63a.77.77,0,0,1-.82.68Zm8.05-15.79a5.09,5.09,0,0,0-2.72.72,7.74,7.74,0,0,0-2.14,2V32a4.94,4.94,0,0,0,1.9,1.65,5.44,5.44,0,0,0,2.32.48,4.56,4.56,0,0,0,3.88-1.8,8.37,8.37,0,0,0,1.35-5.12,12.78,12.78,0,0,0-.31-3,6,6,0,0,0-.9-2.07,3.48,3.48,0,0,0-1.44-1.18A4.8,4.8,0,0,0,136.24,20.5Z"/><path class="cls-1" d="M39,26.41H27a2.27,2.27,0,0,1-.38.44,2,2,0,0,1-.3.21v10H37.28A41.24,41.24,0,0,0,39,26.41Z"/><path class="cls-1" d="M27,23.84H39a41.24,41.24,0,0,0-1.67-10.69H26.34v10a2.33,2.33,0,0,1,.52.43A1.77,1.77,0,0,1,27,23.84Z"/><path class="cls-1" d="M34.67,7C32.36,3,29.44.54,26.34,0V10.57h10A27.37,27.37,0,0,0,34.67,7Z"/><path class="cls-1" d="M36.94,44.52a22.08,22.08,0,0,1-3.19,4.33,25.6,25.6,0,0,0,12.12-9.17H39.16A31.55,31.55,0,0,1,36.94,44.52Z"/><path class="cls-1" d="M36.38,39.68h-10V50.25c3.1-.54,6-3,8.33-7A27.37,27.37,0,0,0,36.38,39.68Z"/><path class="cls-1" d="M40,37.1H47.5a24.83,24.83,0,0,0,3-10.69h-9A44,44,0,0,1,40,37.1Z"/><path class="cls-1" d="M33.75,1.4a22.08,22.08,0,0,1,3.19,4.33,31.12,31.12,0,0,1,2.22,4.84h6.71A25.6,25.6,0,0,0,33.75,1.4Z"/><path class="cls-1" d="M41.55,23.84h9a24.83,24.83,0,0,0-3-10.69H40A44,44,0,0,1,41.55,23.84Z"/><path class="cls-1" d="M9,23.94H6.52a2.13,2.13,0,0,0-.35-.39,2.07,2.07,0,1,0,.2,2.92l.15-.19H9a16.17,16.17,0,0,0,7.58,12.55v1.91a1.25,1.25,0,0,0-.19.15,2.07,2.07,0,1,0,2.92.19,2.5,2.5,0,0,0-.39-.34V38.38a1.18,1.18,0,0,0-.58-1.22,13.81,13.81,0,0,1-7-12,13.53,13.53,0,0,1,6.81-11.91,1.18,1.18,0,0,0,.82-1.12V9.56a2.07,2.07,0,1,0-2.53-.14l.19.14v1.83A16.07,16.07,0,0,0,9,23.94Z"/><path class="cls-1" d="M16.4,25.12a8.67,8.67,0,0,0,7.5,8.59V31.35a6.33,6.33,0,0,1,0-12.45V16.54A8.67,8.67,0,0,0,16.4,25.12Z"/><path class="cls-1" d="M1.8,19.58A2.07,2.07,0,0,0,4.12,17.8a2.09,2.09,0,0,0-.22-1.24,22.83,22.83,0,0,1,20-14.24V0A25.18,25.18,0,0,0,1.82,15.47a2.07,2.07,0,0,0,0,4.11Z"/><path class="cls-1" d="M23.9,47.93a22.83,22.83,0,0,1-20-14.21,2.08,2.08,0,1,0-2.06,1.11,25.13,25.13,0,0,0,22,15.42Z"/></g></g></svg>