<?xml version="1.0" encoding="utf-8"?>
<!-- Generator: Adobe Illustrator 26.3.1, SVG Export Plug-In . SVG Version: 6.00 Build 0)  -->
<svg version="1.1" id="Ebene_1" xmlns="http://www.w3.org/2000/svg" xmlns:xlink="http://www.w3.org/1999/xlink" x="0px" y="0px"
	 viewBox="0 0 104 40" style="enable-background:new 0 0 104 40;" xml:space="preserve">
<g id="Ebene_2_00000009584302879968687440000011178848388515162812_">
	<g id="Ebene_1-2">
		<path d="M38.7,15h1.8c0.2,0,0.3,0,0.5,0.1c0.1,0.1,0.2,0.2,0.2,0.3l2.5,8.4c0.1,0.3,0.1,0.6,0.2,0.9c0.1,0.3,0.1,0.6,0.2,0.9
			c0.1-0.3,0.1-0.6,0.2-0.9c0.1-0.3,0.2-0.6,0.3-0.9l2.7-8.4c0-0.1,0.1-0.2,0.2-0.3c0.1-0.1,0.3-0.1,0.4-0.1h1c0.2,0,0.3,0,0.4,0.1
			c0.1,0.1,0.2,0.2,0.2,0.3l2.7,8.4c0.1,0.3,0.2,0.6,0.2,0.9l0.2,0.9c0-0.3,0.1-0.6,0.2-0.9c0.1-0.3,0.1-0.6,0.2-0.9l2.5-8.4
			c0-0.1,0.1-0.3,0.2-0.3c0.1-0.1,0.3-0.1,0.4-0.1H58l-4.2,13H52c-0.2,0-0.4-0.1-0.5-0.4l-2.9-8.8c-0.1-0.2-0.1-0.4-0.2-0.6
			l-0.1-0.6l-0.1,0.6c0,0.2-0.1,0.4-0.2,0.6l-2.9,8.8c0,0.3-0.3,0.4-0.5,0.4h-1.7L38.7,15z"/>
		<path d="M65,14.9c0.7,0,1.5,0.1,2.2,0.4c0.6,0.2,1.2,0.6,1.7,1.1c0.5,0.5,0.9,1.1,1.1,1.8c0.3,0.8,0.4,1.6,0.4,2.4
			c0,0.2,0,0.5-0.1,0.7c-0.1,0.1-0.3,0.2-0.4,0.2h-8.7c0,0.7,0.1,1.5,0.3,2.2c0.2,0.6,0.5,1.1,0.9,1.5c0.4,0.4,0.8,0.7,1.3,0.9
			c0.5,0.2,1.1,0.3,1.7,0.3c0.5,0,1-0.1,1.4-0.2c0.4-0.1,0.7-0.3,1.1-0.4c0.2-0.1,0.5-0.3,0.7-0.4c0.1-0.1,0.3-0.2,0.5-0.2
			c0.2,0,0.3,0.1,0.4,0.2l0.6,0.8c-0.3,0.4-0.6,0.7-0.9,0.9c-0.4,0.3-0.8,0.5-1.3,0.6c-0.5,0.2-0.9,0.3-1.4,0.4
			c-0.5,0.1-1,0.1-1.4,0.1c-0.8,0-1.7-0.1-2.5-0.5c-0.8-0.3-1.4-0.7-2-1.3c-0.6-0.6-1-1.4-1.3-2.2c-0.3-1-0.5-2-0.5-3
			c0-0.9,0.1-1.7,0.4-2.5c0.3-0.8,0.7-1.5,1.2-2c0.5-0.6,1.2-1.1,1.9-1.4C63.2,15,64.1,14.8,65,14.9z M65,16.5c-1-0.1-1.9,0.3-2.6,1
			c-0.7,0.7-1.1,1.7-1.2,2.7h7.1c0-0.5-0.1-1-0.2-1.4c-0.1-0.4-0.4-0.8-0.6-1.1c-0.3-0.3-0.6-0.6-1-0.7C66,16.6,65.5,16.5,65,16.5
			L65,16.5z"/>
		<path d="M72.8,17c0-0.2,0-0.4,0.1-0.6c0.1-0.2,0.2-0.4,0.3-0.5c0.1-0.1,0.3-0.3,0.5-0.3c0.4-0.2,0.9-0.2,1.3,0
			c0.2,0.1,0.4,0.2,0.5,0.3c0.1,0.1,0.3,0.3,0.3,0.5C76,16.6,76,16.8,76,17c0,0.2,0,0.4-0.1,0.6c-0.1,0.2-0.2,0.4-0.3,0.5
			c-0.1,0.1-0.3,0.3-0.5,0.3c-0.4,0.2-0.9,0.2-1.3,0c-0.2-0.1-0.4-0.2-0.5-0.3c-0.1-0.1-0.3-0.3-0.3-0.5
			C72.8,17.5,72.8,17.2,72.8,17z M72.8,26.7c0-0.4,0.2-0.8,0.5-1.1c0.1-0.1,0.3-0.3,0.5-0.3c0.4-0.2,0.9-0.2,1.3,0
			c0.2,0.1,0.4,0.2,0.5,0.3c0.1,0.1,0.3,0.3,0.3,0.5c0.2,0.4,0.2,0.9,0,1.3c-0.1,0.2-0.2,0.4-0.3,0.5c-0.1,0.1-0.3,0.3-0.5,0.3
			c-0.4,0.2-0.9,0.2-1.3,0c-0.2-0.1-0.4-0.2-0.5-0.3c-0.1-0.1-0.3-0.3-0.3-0.5C72.8,27.1,72.8,26.9,72.8,26.7L72.8,26.7z"/>
		<path d="M81.6,9.1v11.1h0.6c0.1,0,0.3,0,0.4-0.1c0.1-0.1,0.3-0.2,0.4-0.3l4.1-4.4c0.1-0.1,0.2-0.2,0.4-0.3
			c0.2-0.1,0.3-0.1,0.5-0.1h2.1l-4.8,5.1c-0.1,0.1-0.2,0.3-0.4,0.4c-0.1,0.1-0.2,0.2-0.4,0.3c0.2,0.1,0.3,0.2,0.4,0.4
			c0.1,0.1,0.3,0.3,0.4,0.5l5.1,6.4h-2.1c-0.2,0-0.3,0-0.5-0.1c-0.1-0.1-0.3-0.2-0.4-0.3l-4.3-5.3c-0.1-0.1-0.2-0.3-0.4-0.4
			c-0.2-0.1-0.4-0.1-0.6-0.1h-0.6v6.2h-2.3V9.1H81.6z"/>
		<path d="M92.5,28.1V9.1h2.3v7.8c0.5-0.6,1.2-1.1,1.9-1.5c0.7-0.4,1.6-0.6,2.4-0.6c0.7,0,1.4,0.1,2,0.4c0.6,0.3,1.1,0.7,1.6,1.3
			c0.5,0.6,0.8,1.3,1,2.1c0.2,0.9,0.4,1.9,0.3,2.9c0,0.9-0.1,1.8-0.4,2.7c-0.2,0.8-0.6,1.5-1.1,2.2c-1,1.3-2.5,2-4.1,1.9
			c-0.8,0-1.5-0.1-2.2-0.5c-0.6-0.3-1.1-0.8-1.5-1.4l-0.1,1.2c0,0.3-0.3,0.5-0.6,0.5L92.5,28.1z M98.3,16.7c-0.7,0-1.4,0.2-2,0.5
			c-0.6,0.4-1.1,0.9-1.5,1.4V25c0.3,0.5,0.8,0.9,1.4,1.2c0.5,0.2,1.1,0.4,1.7,0.3c1.1,0.1,2.1-0.4,2.8-1.3c0.7-1.1,1.1-2.4,1-3.7
			c0-0.7-0.1-1.5-0.2-2.2c-0.1-0.5-0.3-1-0.6-1.5c-0.3-0.4-0.6-0.7-1-0.9C99.3,16.8,98.8,16.7,98.3,16.7z"/>
		<path d="M28.1,20.9h-8.7c-0.1,0.1-0.2,0.2-0.3,0.3c-0.1,0.1-0.1,0.1-0.2,0.2v7.2h7.9C27.7,26.1,28.1,23.5,28.1,20.9z"/>
		<path d="M19.5,19.1h8.7c-0.1-2.6-0.5-5.2-1.2-7.7H19v7.2c0.1,0.1,0.3,0.2,0.4,0.3C19.4,18.9,19.5,19,19.5,19.1z"/>
		<path d="M25,6.9c-1.7-2.9-3.8-4.7-6-5.1v7.6h7.2C25.9,8.6,25.5,7.7,25,6.9z"/>
		<path d="M26.7,34c-0.6,1.1-1.4,2.2-2.3,3.1c3.5-1.3,6.6-3.6,8.7-6.6h-4.8C27.8,31.7,27.3,32.9,26.7,34z"/>
		<path d="M26.3,30.5H19v7.6c2.2-0.4,4.3-2.2,6-5.1C25.5,32.3,25.9,31.4,26.3,30.5z"/>
		<path d="M28.9,28.6h5.4c1.3-2.4,2-5,2.2-7.7H30C29.9,23.5,29.5,26.1,28.9,28.6z"/>
		<path d="M24.4,2.9c0.9,0.9,1.7,2,2.3,3.1c0.6,1.1,1.2,2.3,1.6,3.5h4.8C30.9,6.5,27.9,4.1,24.4,2.9z"/>
		<path d="M30,19.1h6.5c-0.1-2.7-0.9-5.3-2.2-7.7h-5.4C29.6,13.9,29.9,16.5,30,19.1z"/>
		<path d="M6.5,19.1H4.7c-0.1-0.1-0.2-0.2-0.3-0.3c-0.6-0.5-1.6-0.5-2.1,0.1c-0.5,0.6-0.5,1.6,0.1,2.1c0.6,0.5,1.6,0.5,2.1-0.1
			c0,0,0,0,0,0l0.1-0.1h1.8c0.3,3.7,2.3,7.1,5.5,9.1v1.4c0,0-0.1,0.1-0.1,0.1c-0.6,0.5-0.7,1.5-0.1,2.1c0.5,0.6,1.5,0.7,2.1,0.1
			c0.6-0.5,0.7-1.5,0.1-2.1c0,0,0,0,0,0c-0.1-0.1-0.2-0.2-0.3-0.2v-1.7c0.1-0.4-0.1-0.7-0.4-0.9c-3.1-1.8-5-5.1-5.1-8.7
			c0-3.5,1.8-6.8,4.9-8.6c0.4-0.1,0.6-0.4,0.6-0.8V8.8c0.7-0.5,0.9-1.4,0.4-2.1S12.7,5.8,12,6.3c-0.7,0.5-0.9,1.4-0.4,2.1
			c0.1,0.1,0.2,0.2,0.3,0.3L12,8.8v1.3C8.8,12,6.8,15.4,6.5,19.1z"/>
		<path d="M11.8,20c0,3.1,2.3,5.8,5.4,6.2v-1.7c-2.5-0.5-4.1-2.8-3.7-5.3c0.3-1.9,1.8-3.3,3.7-3.7v-1.7C14.2,14.2,11.8,16.9,11.8,20
			z"/>
		<path d="M1.3,16c0.8,0.1,1.6-0.5,1.7-1.3c0-0.3,0-0.6-0.2-0.9c2.4-5.9,8-10,14.4-10.3V1.9C10.2,2.2,4,6.5,1.3,13
			c-0.8,0.1-1.4,0.8-1.3,1.7C0.1,15.4,0.6,15.9,1.3,16L1.3,16z"/>
		<path d="M17.2,36.5c-6.4-0.3-12-4.3-14.4-10.3c0.4-0.7,0.1-1.6-0.6-2c-0.7-0.4-1.6-0.1-2,0.6s-0.1,1.6,0.6,2C1,26.9,1.1,27,1.3,27
			c2.7,6.5,8.9,10.8,15.9,11.1L17.2,36.5z"/>
	</g>
</g>
</svg>
